<svg xmlns="http://www.w3.org/2000/svg" viewBox="0 0 800 800">
<defs><linearGradient id="bg" x1="0" y1="0" x2="1" y2="1"><stop stop-color="#18214a"/><stop offset="1" stop-color="#42164a"/></linearGradient><linearGradient id="g" x1="0" y1="0" x2="0" y2="1"><stop stop-color="#8edb4f"/><stop offset="1" stop-color="#4c9b39"/></linearGradient></defs>
<rect width="800" height="800" rx="70" fill="url(#bg)"/><circle cx="120" cy="120" r="100" fill="#39e0ff" opacity=".18"/><circle cx="700" cy="680" r="150" fill="#ff4fd8" opacity=".16"/>
<path d="M178 330 Q165 205 275 178 Q330 160 390 202 Q470 160 548 184 Q650 215 622 337 L600 575 Q575 690 400 705 Q225 690 200 575Z" fill="url(#g)" stroke="#254e2a" stroke-width="18"/>
<ellipse cx="285" cy="295" rx="78" ry="92" fill="#a5e66b"/><ellipse cx="515" cy="295" rx="78" ry="92" fill="#a5e66b"/>
<circle cx="285" cy="305" r="33" fill="#182018"/><circle cx="515" cy="305" r="33" fill="#182018"/><circle cx="275" cy="294" r="10" fill="white"/><circle cx="505" cy="294" r="10" fill="white"/>
<path d="M270 465 Q400 545 530 465" fill="#263329" stroke="#162017" stroke-width="15"/><path d="M318 525 Q400 575 482 525" fill="#e9a0aa"/>
<text x="400" y="755" text-anchor="middle" fill="white" font-family="Arial, sans-serif" font-size="48" font-weight="900">PEPE</text>
</svg>
